<?xml version="1.0" encoding="UTF-8" standalone="no"?>
<!DOCTYPE svg PUBLIC "-//W3C//DTD SVG 1.1//EN" "http://www.w3.org/Graphics/SVG/1.1/DTD/svg11.dtd">
<svg width="100%" height="100%" viewBox="0 0 3344 320" version="1.1" xmlns="http://www.w3.org/2000/svg" xmlns:xlink="http://www.w3.org/1999/xlink" xml:space="preserve" xmlns:serif="http://www.serif.com/" style="fill-rule:evenodd;clip-rule:evenodd;stroke-linejoin:round;stroke-miterlimit:2;">
    <g transform="matrix(1,0,0,1,-67.00432,-1019.91639)">
        <g transform="matrix(4.166667,0,0,4.166667,0,0)">
            <g transform="matrix(0.603828,0,0,0.188248,-1126.586191,-100.402487)">
                <rect x="1892.372" y="1833.656" width="1329.067" height="407.467" style="fill:none;"/>
            </g>
        </g>
        <g transform="matrix(4.166667,0,0,4.166667,0,0)">
            <g transform="matrix(1,0,0,1,-425.927985,-204.953347)">
                <g transform="matrix(1.580697,0,0,1.580697,-557.97179,-2674.72071)">
                    <path d="M770.638,2018.605C772.888,2018.605 774.738,2016.855 774.738,2014.455C774.738,2011.955 772.888,2010.305 770.638,2010.305C768.388,2010.305 766.538,2011.955 766.538,2014.455C766.538,2016.855 768.388,2018.605 770.638,2018.605Z" style="fill:rgb(247,145,45);fill-rule:nonzero;"/>
                </g>
                <g transform="matrix(2.100414,0,0,2.100414,-1106.674629,-3723.098455)">
                    <path d="M792.338,2018.605C800.638,2018.605 806.588,2012.905 806.588,2004.905C806.588,1996.905 800.638,1991.255 792.338,1991.255C784.138,1991.255 778.138,1996.905 778.138,2004.905C778.138,2012.905 784.138,2018.605 792.338,2018.605ZM792.338,2013.255C787.838,2013.255 784.438,2010.005 784.438,2004.905C784.438,1999.805 787.838,1996.555 792.338,1996.555C796.888,1996.555 800.288,1999.805 800.288,2004.905C800.288,2010.005 796.888,2013.255 792.338,2013.255Z" style="fill:white;fill-rule:nonzero;"/>
                </g>
                <g transform="matrix(2.073875,0,0,2.073875,-1114.269084,-3669.525618)">
                    <path d="M830.238,1995.455L830.238,1991.555L824.288,1991.555L824.288,2018.255L830.538,2018.255L830.538,2005.305C830.538,1999.855 833.538,1997.055 838.288,1997.055C838.738,1997.055 839.188,1997.105 839.738,1997.205L839.738,1991.255C835.288,1991.255 832.038,1992.655 830.238,1995.455Z" style="fill:white;fill-rule:nonzero;"/>
                </g>
                <g transform="matrix(2.073875,0,0,2.073875,-1142.672711,-3669.525618)">
                    <path d="M862.938,1995.455L862.938,1991.555L856.988,1991.555L856.988,2018.255L863.238,2018.255L863.238,2005.305C863.238,1999.855 866.238,1997.055 870.988,1997.055C871.438,1997.055 871.888,1997.105 872.438,1997.205L872.438,1991.255C867.988,1991.255 864.738,1992.655 862.938,1995.455Z" style="fill:white;fill-rule:nonzero;"/>
                </g>
                <g transform="matrix(2.100414,0,0,2.100414,-1168.659281,-3723.098455)">
                    <path d="M890.188,2013.305C886.288,2013.305 883.388,2011.655 882.088,2008.605L902.538,2004.605C902.488,1996.255 896.488,1991.255 889.038,1991.255C881.088,1991.255 875.288,1996.955 875.288,2004.905C875.288,2012.855 881.088,2018.605 890.038,2018.605C894.638,2018.605 898.388,2017.105 900.738,2014.255L897.438,2010.405C895.488,2012.355 893.188,2013.305 890.188,2013.305ZM889.038,1996.255C892.788,1996.255 895.588,1998.455 896.438,2001.705L881.338,2004.605L881.338,2004.555C881.338,1999.455 884.488,1996.255 889.038,1996.255Z" style="fill:white;fill-rule:nonzero;"/>
                </g>
                <g transform="matrix(1.375249,0,0,1.375249,128.585344,-212.456453)">
                    <g transform="matrix(0.219762,0,0,0.219762,19.217923,42.954526)">
                        <path d="M1212.209,2164.352C1196.715,2195.829 1164.312,2217.51 1126.886,2217.51C1074.433,2217.51 1031.848,2174.924 1031.848,2122.471C1031.848,2104.782 1036.691,2088.216 1045.122,2074.026C1049.533,2082.265 1056.047,2094.912 1059.299,2103.569C1064.206,2116.635 1068.005,2130.692 1073.476,2143.299C1074.206,2145.12 1075.028,2146.896 1075.938,2148.619C1075.969,2148.68 1076.001,2148.74 1076.034,2148.8C1085.644,2166.849 1104.819,2179.17 1126.886,2179.17C1149.545,2179.17 1169.155,2166.179 1178.491,2147.334L1212.209,2164.352Z" style="fill:white;"/>
                    </g>
                    <g transform="matrix(0.219762,0,0,0.219762,19.217923,42.954526)">
                        <path d="M1180.79,2102.924C1172.719,2081.25 1151.618,2065.773 1126.886,2065.773C1101.62,2065.773 1080.144,2081.925 1072.477,2104.335C1070.589,2099.44 1067.165,2090.918 1062.761,2081.484C1060.196,2075.989 1056.347,2069.32 1052.598,2063.218C1070.019,2041.413 1096.833,2027.433 1126.886,2027.433C1167.67,2027.433 1202.489,2053.179 1215.962,2089.291L1180.79,2102.924Z" style="fill:rgb(247,145,45);"/>
                    </g>
                </g>
            </g>
        </g>
        <g transform="matrix(4.166667,0,0,4.166667,0,0)">
            <g transform="matrix(0.584781,0,0,0.584781,19.672521,-1092.674732)">
                <g transform="matrix(0.915675,0,0,0.915675,-3.779662,198.390137)">
                    <path d="M568.699,2337.012C573.899,2337.012 578.049,2334.762 580.099,2330.762L575.299,2327.962C573.699,2330.512 571.299,2331.662 568.649,2331.662C564.049,2331.662 560.549,2328.512 560.549,2323.312C560.549,2318.162 564.049,2314.962 568.649,2314.962C571.299,2314.962 573.699,2316.112 575.299,2318.662L580.099,2315.862C578.049,2311.812 573.899,2309.662 568.699,2309.662C560.249,2309.662 554.249,2315.312 554.249,2323.312C554.249,2331.312 560.249,2337.012 568.699,2337.012Z" style="fill:white;fill-rule:nonzero;"/>
                </g>
                <g transform="matrix(0.915675,0,0,0.915675,-3.779662,198.390137)">
                    <path d="M597.799,2331.712C593.899,2331.712 590.999,2330.062 589.699,2327.012L610.149,2323.012C610.099,2314.662 604.099,2309.662 596.649,2309.662C588.699,2309.662 582.899,2315.362 582.899,2323.312C582.899,2331.262 588.699,2337.012 597.649,2337.012C602.249,2337.012 605.999,2335.512 608.349,2332.662L605.049,2328.812C603.099,2330.762 600.799,2331.712 597.799,2331.712ZM596.649,2314.662C600.399,2314.662 603.199,2316.862 604.049,2320.112L588.949,2323.012L588.949,2322.962C588.949,2317.862 592.099,2314.662 596.649,2314.662Z" style="fill:white;fill-rule:nonzero;"/>
                </g>
                <g transform="matrix(0.915675,0,0,0.915675,-3.779662,198.390137)">
                    <path d="M631.299,2309.662C627.399,2309.662 624.149,2310.962 622.099,2313.412L622.099,2309.962L616.149,2309.962L616.149,2336.662L622.399,2336.662L622.399,2323.162C622.399,2317.812 625.399,2315.112 629.849,2315.112C633.849,2315.112 636.199,2317.412 636.199,2322.162L636.199,2336.662L642.449,2336.662L642.449,2321.362C642.449,2313.312 637.699,2309.662 631.299,2309.662Z" style="fill:white;fill-rule:nonzero;"/>
                </g>
                <g transform="matrix(0.915675,0,0,0.915675,-3.779662,198.390137)">
                    <path d="M663.649,2330.762C662.699,2331.512 661.449,2331.862 660.149,2331.862C657.799,2331.862 656.449,2330.462 656.449,2327.862L656.449,2315.162L663.599,2315.162L663.599,2310.162L656.449,2310.162L656.449,2304.062L650.199,2304.062L650.199,2328.012C650.199,2333.912 653.549,2337.012 659.399,2337.012C661.649,2337.012 663.899,2336.412 665.399,2335.212L663.649,2330.762Z" style="fill:white;fill-rule:nonzero;"/>
                </g>
                <g transform="matrix(0.915675,0,0,0.915675,-3.779662,198.390137)">
                    <path d="M676.499,2313.862L676.499,2309.962L670.549,2309.962L670.549,2336.662L676.799,2336.662L676.799,2323.712C676.799,2318.262 679.799,2315.462 684.549,2315.462C684.999,2315.462 685.449,2315.512 685.999,2315.612L685.999,2309.662C681.549,2309.662 678.299,2311.062 676.499,2313.862Z" style="fill:white;fill-rule:nonzero;"/>
                </g>
                <g transform="matrix(0.915675,0,0,0.915675,-3.779662,198.390137)">
                    <path d="M710.899,2309.962L710.899,2313.212C708.749,2310.812 705.749,2309.662 702.349,2309.662C694.549,2309.662 688.849,2315.012 688.849,2323.312C688.849,2331.612 694.549,2337.012 702.349,2337.012C705.999,2337.012 709.099,2335.762 711.199,2333.212L711.199,2336.662L717.149,2336.662L717.149,2309.962L710.899,2309.962ZM703.049,2331.662C698.549,2331.662 695.149,2328.412 695.149,2323.312C695.149,2318.212 698.549,2314.962 703.049,2314.962C707.599,2314.962 710.999,2318.212 710.999,2323.312C710.999,2328.412 707.599,2331.662 703.049,2331.662Z" style="fill:white;fill-rule:nonzero;"/>
                </g>
                <g transform="matrix(0.915675,0,0,0.915675,-3.779662,198.390137)">
                    <path d="M734.149,2337.012C735.399,2337.012 736.699,2336.812 737.899,2336.362L737.599,2331.362C737.099,2331.612 736.199,2331.862 735.349,2331.862C732.849,2331.862 731.599,2330.462 731.599,2327.862L731.599,2299.562L725.349,2299.562L725.349,2328.312C725.349,2333.862 728.599,2337.012 734.149,2337.012Z" style="fill:white;fill-rule:nonzero;"/>
                </g>
                <g transform="matrix(0.915675,0,0,0.915675,-3.779662,198.390137)">
                    <path d="M775.849,2299.562L775.849,2313.262C773.749,2310.812 770.699,2309.662 767.249,2309.662C759.499,2309.662 753.749,2315.012 753.749,2323.312C753.749,2331.612 759.499,2337.012 767.249,2337.012C770.899,2337.012 773.999,2335.762 776.099,2333.212L776.099,2336.662L782.099,2336.662L782.099,2299.562L775.849,2299.562ZM767.999,2331.662C763.499,2331.662 760.049,2328.412 760.049,2323.312C760.049,2318.212 763.499,2314.962 767.999,2314.962C772.499,2314.962 775.949,2318.212 775.949,2323.312C775.949,2328.412 772.499,2331.662 767.999,2331.662Z" style="fill:white;fill-rule:nonzero;"/>
                </g>
                <g transform="matrix(0.915675,0,0,0.915675,-3.779662,198.390137)">
                    <path d="M802.999,2331.712C799.099,2331.712 796.199,2330.062 794.899,2327.012L815.349,2323.012C815.299,2314.662 809.299,2309.662 801.849,2309.662C793.899,2309.662 788.099,2315.362 788.099,2323.312C788.099,2331.262 793.899,2337.012 802.849,2337.012C807.449,2337.012 811.199,2335.512 813.549,2332.662L810.249,2328.812C808.299,2330.762 805.999,2331.712 802.999,2331.712ZM801.849,2314.662C805.599,2314.662 808.399,2316.862 809.249,2320.112L794.149,2323.012L794.149,2322.962C794.149,2317.862 797.299,2314.662 801.849,2314.662Z" style="fill:white;fill-rule:nonzero;"/>
                </g>
                <g transform="matrix(0.915675,0,0,0.915675,-3.779662,198.390137)">
                    <path d="M847.149,2337.012C855.449,2337.012 861.399,2331.312 861.399,2323.312C861.399,2315.312 855.449,2309.662 847.149,2309.662C838.949,2309.662 832.949,2315.312 832.949,2323.312C832.949,2331.312 838.949,2337.012 847.149,2337.012ZM847.149,2331.662C842.649,2331.662 839.249,2328.412 839.249,2323.312C839.249,2318.212 842.649,2314.962 847.149,2314.962C851.699,2314.962 855.099,2318.212 855.099,2323.312C855.099,2328.412 851.699,2331.662 847.149,2331.662Z" style="fill:white;fill-rule:nonzero;"/>
                </g>
                <g transform="matrix(0.915675,0,0,0.915675,-3.779662,198.390137)">
                    <path d="M873.349,2313.862L873.349,2309.962L867.399,2309.962L867.399,2336.662L873.649,2336.662L873.649,2323.712C873.649,2318.262 876.649,2315.462 881.399,2315.462C881.849,2315.462 882.299,2315.512 882.849,2315.612L882.849,2309.662C878.399,2309.662 875.149,2311.062 873.349,2313.862Z" style="fill:white;fill-rule:nonzero;"/>
                </g>
                <g transform="matrix(0.915675,0,0,0.915675,-3.779662,198.390137)">
                    <path d="M908.449,2309.962L908.449,2313.512C906.249,2310.862 902.949,2309.662 899.199,2309.662C891.549,2309.662 885.699,2314.762 885.699,2322.512C885.699,2330.262 891.549,2335.462 899.199,2335.462C902.799,2335.462 905.949,2334.312 908.149,2331.912L908.149,2333.312C908.149,2338.712 905.549,2341.412 899.649,2341.412C895.949,2341.412 892.149,2340.162 889.799,2338.212L886.999,2342.912C890.049,2345.412 894.999,2346.712 899.999,2346.712C909.349,2346.712 914.399,2342.312 914.399,2332.612L914.399,2309.962L908.449,2309.962ZM900.149,2330.162C895.399,2330.162 891.999,2327.062 891.999,2322.512C891.999,2318.012 895.399,2314.962 900.149,2314.962C904.849,2314.962 908.249,2318.012 908.249,2322.512C908.249,2327.062 904.849,2330.162 900.149,2330.162Z" style="fill:white;fill-rule:nonzero;"/>
                </g>
                <g transform="matrix(0.915675,0,0,0.915675,-3.779662,198.390137)">
                    <path d="M942.449,2309.962L942.449,2313.212C940.299,2310.812 937.299,2309.662 933.899,2309.662C926.099,2309.662 920.399,2315.012 920.399,2323.312C920.399,2331.612 926.099,2337.012 933.899,2337.012C937.549,2337.012 940.649,2335.762 942.749,2333.212L942.749,2336.662L948.699,2336.662L948.699,2309.962L942.449,2309.962ZM934.599,2331.662C930.099,2331.662 926.699,2328.412 926.699,2323.312C926.699,2318.212 930.099,2314.962 934.599,2314.962C939.149,2314.962 942.549,2318.212 942.549,2323.312C942.549,2328.412 939.149,2331.662 934.599,2331.662Z" style="fill:white;fill-rule:nonzero;"/>
                </g>
                <g transform="matrix(0.915675,0,0,0.915675,-3.779662,198.390137)">
                    <path d="M972.049,2309.662C968.149,2309.662 964.899,2310.962 962.849,2313.412L962.849,2309.962L956.899,2309.962L956.899,2336.662L963.149,2336.662L963.149,2323.162C963.149,2317.812 966.149,2315.112 970.599,2315.112C974.599,2315.112 976.949,2317.412 976.949,2322.162L976.949,2336.662L983.199,2336.662L983.199,2321.362C983.199,2313.312 978.449,2309.662 972.049,2309.662Z" style="fill:white;fill-rule:nonzero;"/>
                </g>
                <g transform="matrix(0.915675,0,0,0.915675,-3.779662,198.390137)">
                    <path d="M994.299,2305.562C996.649,2305.562 998.299,2303.862 998.299,2301.662C998.299,2299.612 996.599,2298.062 994.299,2298.062C991.999,2298.062 990.299,2299.712 990.299,2301.812C990.299,2303.912 991.999,2305.562 994.299,2305.562ZM991.149,2336.662L997.399,2336.662L997.399,2309.962L991.149,2309.962L991.149,2336.662Z" style="fill:white;fill-rule:nonzero;"/>
                </g>
                <g transform="matrix(0.915675,0,0,0.915675,-3.779662,198.390137)">
                    <path d="M1011.599,2331.662L1016.699,2325.512L1024.799,2325.512L1024.799,2320.912L1020.499,2320.912L1026.299,2313.912L1026.299,2309.962L1003.949,2309.962L1003.949,2314.962L1018.299,2314.962L1013.449,2320.862L1005.499,2320.862L1005.499,2325.462L1009.649,2325.462L1003.649,2332.712L1003.649,2336.662L1026.699,2336.662L1026.699,2331.662L1011.599,2331.662Z" style="fill:white;fill-rule:nonzero;"/>
                </g>
                <g transform="matrix(0.915675,0,0,0.915675,-3.779662,198.390137)">
                    <path d="M1052.149,2309.962L1052.149,2313.212C1049.999,2310.812 1046.999,2309.662 1043.599,2309.662C1035.799,2309.662 1030.099,2315.012 1030.099,2323.312C1030.099,2331.612 1035.799,2337.012 1043.599,2337.012C1047.249,2337.012 1050.349,2335.762 1052.449,2333.212L1052.449,2336.662L1058.399,2336.662L1058.399,2309.962L1052.149,2309.962ZM1044.299,2331.662C1039.799,2331.662 1036.399,2328.412 1036.399,2323.312C1036.399,2318.212 1039.799,2314.962 1044.299,2314.962C1048.849,2314.962 1052.249,2318.212 1052.249,2323.312C1052.249,2328.412 1048.849,2331.662 1044.299,2331.662Z" style="fill:white;fill-rule:nonzero;"/>
                </g>
                <g transform="matrix(0.915675,0,0,0.915675,-3.779662,198.390137)">
                    <path d="M1078.799,2331.662C1074.199,2331.662 1070.699,2328.512 1070.699,2323.312C1070.699,2318.162 1074.199,2314.962 1078.799,2314.962C1081.449,2314.962 1083.849,2316.112 1085.449,2318.662L1090.249,2315.862C1088.199,2311.812 1084.049,2309.662 1078.849,2309.662C1070.399,2309.662 1064.399,2315.312 1064.399,2323.312C1064.399,2330.362 1069.049,2335.612 1075.899,2336.762L1074.649,2341.412L1076.199,2341.412C1078.099,2341.412 1078.849,2342.112 1078.849,2343.062C1078.849,2344.162 1078.049,2344.862 1076.199,2344.862C1074.949,2344.862 1073.849,2344.612 1072.799,2344.062L1071.649,2347.012C1072.899,2347.712 1074.449,2348.062 1076.249,2348.062C1080.349,2348.062 1083.049,2346.212 1083.049,2343.312C1083.049,2341.162 1081.649,2339.462 1078.699,2339.112L1079.249,2337.012C1084.249,2336.912 1088.249,2334.662 1090.249,2330.762L1085.449,2327.962C1083.849,2330.512 1081.449,2331.662 1078.799,2331.662Z" style="fill:white;fill-rule:nonzero;"/>
                </g>
                <g transform="matrix(0.915675,0,0,0.915675,-3.779662,198.390137)">
                    <path d="M1105.049,2303.012C1106.849,2303.012 1108.549,2306.312 1111.849,2306.312C1115.049,2306.312 1117.149,2303.662 1117.249,2299.762L1113.899,2299.762C1113.799,2301.562 1112.849,2302.612 1111.449,2302.612C1109.649,2302.612 1107.949,2299.312 1104.649,2299.312C1101.449,2299.312 1099.349,2301.912 1099.249,2306.012L1102.599,2306.012C1102.699,2304.112 1103.649,2303.012 1105.049,2303.012ZM1115.099,2309.962L1115.099,2313.212C1112.949,2310.812 1109.949,2309.662 1106.549,2309.662C1098.749,2309.662 1093.049,2315.012 1093.049,2323.312C1093.049,2331.612 1098.749,2337.012 1106.549,2337.012C1110.199,2337.012 1113.299,2335.762 1115.399,2333.212L1115.399,2336.662L1121.349,2336.662L1121.349,2309.962L1115.099,2309.962ZM1107.249,2331.662C1102.749,2331.662 1099.349,2328.412 1099.349,2323.312C1099.349,2318.212 1102.749,2314.962 1107.249,2314.962C1111.799,2314.962 1115.199,2318.212 1115.199,2323.312C1115.199,2328.412 1111.799,2331.662 1107.249,2331.662Z" style="fill:white;fill-rule:nonzero;"/>
                </g>
                <g transform="matrix(0.915675,0,0,0.915675,-3.779662,198.390137)">
                    <path d="M1141.549,2337.012C1149.849,2337.012 1155.799,2331.312 1155.799,2323.312C1155.799,2315.312 1149.849,2309.662 1141.549,2309.662C1133.349,2309.662 1127.349,2315.312 1127.349,2323.312C1127.349,2331.312 1133.349,2337.012 1141.549,2337.012ZM1141.549,2331.662C1137.049,2331.662 1133.649,2328.412 1133.649,2323.312C1133.649,2318.212 1137.049,2314.962 1141.549,2314.962C1146.099,2314.962 1149.499,2318.212 1149.499,2323.312C1149.499,2328.412 1146.099,2331.662 1141.549,2331.662Z" style="fill:white;fill-rule:nonzero;"/>
                </g>
                <g transform="matrix(0.915675,0,0,0.915675,-3.779662,198.390137)">
                    <path d="M1195.499,2299.562L1195.499,2313.262C1193.399,2310.812 1190.349,2309.662 1186.899,2309.662C1179.149,2309.662 1173.399,2315.012 1173.399,2323.312C1173.399,2331.612 1179.149,2337.012 1186.899,2337.012C1190.549,2337.012 1193.649,2335.762 1195.749,2333.212L1195.749,2336.662L1201.749,2336.662L1201.749,2299.562L1195.499,2299.562ZM1187.649,2331.662C1183.149,2331.662 1179.699,2328.412 1179.699,2323.312C1179.699,2318.212 1183.149,2314.962 1187.649,2314.962C1192.149,2314.962 1195.599,2318.212 1195.599,2323.312C1195.599,2328.412 1192.149,2331.662 1187.649,2331.662Z" style="fill:white;fill-rule:nonzero;"/>
                </g>
                <g transform="matrix(0.915675,0,0,0.915675,-3.779662,198.390137)">
                    <path d="M1222.649,2331.712C1218.749,2331.712 1215.849,2330.062 1214.549,2327.012L1234.999,2323.012C1234.949,2314.662 1228.949,2309.662 1221.499,2309.662C1213.549,2309.662 1207.749,2315.362 1207.749,2323.312C1207.749,2331.262 1213.549,2337.012 1222.499,2337.012C1227.099,2337.012 1230.849,2335.512 1233.199,2332.662L1229.899,2328.812C1227.949,2330.762 1225.649,2331.712 1222.649,2331.712ZM1221.499,2314.662C1225.249,2314.662 1228.049,2316.862 1228.899,2320.112L1213.799,2323.012L1213.799,2322.962C1213.799,2317.862 1216.949,2314.662 1221.499,2314.662Z" style="fill:white;fill-rule:nonzero;"/>
                </g>
                <g transform="matrix(0.915675,0,0,0.915675,-3.779662,198.390137)">
                    <path d="M1260.749,2313.862L1260.749,2309.962L1254.799,2309.962L1254.799,2336.662L1261.049,2336.662L1261.049,2323.712C1261.049,2318.262 1264.049,2315.462 1268.799,2315.462C1269.249,2315.462 1269.699,2315.512 1270.249,2315.612L1270.249,2309.662C1265.799,2309.662 1262.549,2311.062 1260.749,2313.862Z" style="fill:white;fill-rule:nonzero;"/>
                </g>
                <g transform="matrix(0.915675,0,0,0.915675,-3.779662,198.390137)">
                    <path d="M1287.299,2337.012C1295.599,2337.012 1301.549,2331.312 1301.549,2323.312C1301.549,2315.312 1295.599,2309.662 1287.299,2309.662C1279.099,2309.662 1273.099,2315.312 1273.099,2323.312C1273.099,2331.312 1279.099,2337.012 1287.299,2337.012ZM1287.299,2331.662C1282.799,2331.662 1279.399,2328.412 1279.399,2323.312C1279.399,2318.212 1282.799,2314.962 1287.299,2314.962C1291.849,2314.962 1295.249,2318.212 1295.249,2323.312C1295.249,2328.412 1291.849,2331.662 1287.299,2331.662Z" style="fill:white;fill-rule:nonzero;"/>
                </g>
                <g transform="matrix(0.915675,0,0,0.915675,-3.779662,198.390137)">
                    <path d="M1320.799,2330.762C1319.849,2331.512 1318.599,2331.862 1317.299,2331.862C1314.949,2331.862 1313.599,2330.462 1313.599,2327.862L1313.599,2315.162L1320.749,2315.162L1320.749,2310.162L1313.599,2310.162L1313.599,2304.062L1307.349,2304.062L1307.349,2328.012C1307.349,2333.912 1310.699,2337.012 1316.549,2337.012C1318.799,2337.012 1321.049,2336.412 1322.549,2335.212L1320.799,2330.762Z" style="fill:white;fill-rule:nonzero;"/>
                </g>
                <g transform="matrix(0.915675,0,0,0.915675,-3.779662,198.390137)">
                    <path d="M1330.849,2305.562C1333.199,2305.562 1334.849,2303.862 1334.849,2301.662C1334.849,2299.612 1333.149,2298.062 1330.849,2298.062C1328.549,2298.062 1326.849,2299.712 1326.849,2301.812C1326.849,2303.912 1328.549,2305.562 1330.849,2305.562ZM1327.699,2336.662L1333.949,2336.662L1333.949,2309.962L1327.699,2309.962L1327.699,2336.662Z" style="fill:white;fill-rule:nonzero;"/>
                </g>
                <g transform="matrix(0.915675,0,0,0.915675,-3.779662,198.390137)">
                    <path d="M1357.299,2309.662C1353.399,2309.662 1350.149,2310.962 1348.099,2313.412L1348.099,2309.962L1342.149,2309.962L1342.149,2336.662L1348.399,2336.662L1348.399,2323.162C1348.399,2317.812 1351.399,2315.112 1355.849,2315.112C1359.849,2315.112 1362.199,2317.412 1362.199,2322.162L1362.199,2336.662L1368.449,2336.662L1368.449,2321.362C1368.449,2313.312 1363.699,2309.662 1357.299,2309.662Z" style="fill:white;fill-rule:nonzero;"/>
                </g>
                <g transform="matrix(0.915675,0,0,0.915675,-3.779662,198.390137)">
                    <path d="M1396.499,2309.962L1396.499,2313.212C1394.349,2310.812 1391.349,2309.662 1387.949,2309.662C1380.149,2309.662 1374.449,2315.012 1374.449,2323.312C1374.449,2331.612 1380.149,2337.012 1387.949,2337.012C1391.599,2337.012 1394.699,2335.762 1396.799,2333.212L1396.799,2336.662L1402.749,2336.662L1402.749,2309.962L1396.499,2309.962ZM1388.649,2331.662C1384.149,2331.662 1380.749,2328.412 1380.749,2323.312C1380.749,2318.212 1384.149,2314.962 1388.649,2314.962C1393.199,2314.962 1396.599,2318.212 1396.599,2323.312C1396.599,2328.412 1393.199,2331.662 1388.649,2331.662Z" style="fill:white;fill-rule:nonzero;"/>
                </g>
                <g transform="matrix(0.915675,0,0,0.915675,-3.779662,198.390137)">
                    <path d="M1419.199,2337.012C1426.699,2337.012 1431.299,2333.762 1431.299,2328.76C1431.299,2318.31 1414.799,2323.108 1414.799,2317.711C1414.799,2315.961 1416.599,2314.712 1420.399,2314.712C1422.949,2314.712 1425.499,2315.212 1428.049,2316.711L1430.449,2311.962C1428.049,2310.512 1423.999,2309.662 1420.449,2309.662C1413.249,2309.662 1408.699,2312.962 1408.699,2318.011C1408.699,2328.66 1425.199,2323.858 1425.199,2328.961C1425.199,2330.811 1423.549,2331.912 1419.599,2331.912C1416.249,2331.912 1412.649,2330.811 1410.299,2329.261L1407.899,2334.012C1410.299,2335.712 1414.749,2337.012 1419.199,2337.012Z" style="fill:white;fill-rule:nonzero;"/>
                </g>
                <g transform="matrix(0.915675,0,0,0.915675,-3.779662,198.390137)">
                    <path d="M1438.749,2328.712C1436.449,2328.712 1434.699,2330.362 1434.699,2332.862C1434.699,2334.662 1435.649,2335.962 1437.049,2336.562L1435.049,2344.212L1439.099,2344.212L1441.649,2337.162C1442.549,2334.862 1442.799,2333.962 1442.799,2332.862C1442.799,2330.412 1441.099,2328.712 1438.749,2328.712Z" style="fill:white;fill-rule:nonzero;"/>
                </g>
                <g transform="matrix(0.915675,0,0,0.915675,-3.779662,198.390137)">
                    <path d="M562.399,2374.812L562.399,2370.912L556.449,2370.912L556.449,2397.612L562.699,2397.612L562.699,2384.662C562.699,2379.212 565.699,2376.412 570.449,2376.412C570.899,2376.412 571.349,2376.462 571.899,2376.562L571.899,2370.612C567.449,2370.612 564.199,2372.012 562.399,2374.812Z" style="fill:white;fill-rule:nonzero;"/>
                </g>
                <g transform="matrix(0.915675,0,0,0.915675,-3.779662,198.390137)">
                    <path d="M589.649,2392.662C585.749,2392.662 582.849,2391.012 581.549,2387.962L601.999,2383.962C601.949,2375.612 595.949,2370.612 588.499,2370.612C580.549,2370.612 574.749,2376.312 574.749,2384.262C574.749,2392.212 580.549,2397.962 589.499,2397.962C594.099,2397.962 597.849,2396.462 600.199,2393.612L596.899,2389.762C594.949,2391.712 592.649,2392.662 589.649,2392.662ZM588.499,2375.612C592.249,2375.612 595.049,2377.812 595.899,2381.062L580.799,2383.962L580.799,2383.912C580.799,2378.812 583.949,2375.612 588.499,2375.612Z" style="fill:white;fill-rule:nonzero;"/>
                </g>
                <g transform="matrix(0.915675,0,0,0.915675,-3.779662,198.390137)">
                    <path d="M616.249,2397.962C623.749,2397.962 628.349,2394.712 628.349,2389.71C628.349,2379.26 611.849,2384.058 611.849,2378.661C611.849,2376.911 613.649,2375.662 617.449,2375.662C619.999,2375.662 622.549,2376.162 625.099,2377.661L627.499,2372.912C625.099,2371.462 621.049,2370.612 617.499,2370.612C610.299,2370.612 605.749,2373.912 605.749,2378.961C605.749,2389.61 622.249,2384.808 622.249,2389.911C622.249,2391.761 620.599,2392.862 616.649,2392.862C613.299,2392.862 609.699,2391.761 607.349,2390.211L604.949,2394.962C607.349,2396.662 611.799,2397.962 616.249,2397.962Z" style="fill:white;fill-rule:nonzero;"/>
                </g>
                <g transform="matrix(0.915675,0,0,0.915675,-3.779662,198.390137)">
                    <path d="M648.549,2370.612C644.899,2370.612 641.799,2371.862 639.699,2374.412L639.699,2370.912L633.749,2370.912L633.749,2407.312L639.999,2407.312L639.999,2394.362C642.149,2396.812 645.149,2397.962 648.549,2397.962C656.349,2397.962 662.099,2392.562 662.099,2384.262C662.099,2376.012 656.349,2370.612 648.549,2370.612ZM647.849,2392.612C643.349,2392.612 639.899,2389.362 639.899,2384.262C639.899,2379.162 643.349,2375.912 647.849,2375.912C652.349,2375.912 655.749,2379.162 655.749,2384.262C655.749,2389.362 652.349,2392.612 647.849,2392.612Z" style="fill:white;fill-rule:nonzero;"/>
                </g>
                <g transform="matrix(0.915675,0,0,0.915675,-3.779662,198.390137)">
                    <path d="M680.049,2397.962C688.349,2397.962 694.299,2392.262 694.299,2384.262C694.299,2376.262 688.349,2370.612 680.049,2370.612C671.849,2370.612 665.849,2376.262 665.849,2384.262C665.849,2392.262 671.849,2397.962 680.049,2397.962ZM680.049,2392.612C675.549,2392.612 672.149,2389.362 672.149,2384.262C672.149,2379.162 675.549,2375.912 680.049,2375.912C684.599,2375.912 687.999,2379.162 687.999,2384.262C687.999,2389.362 684.599,2392.612 680.049,2392.612Z" style="fill:white;fill-rule:nonzero;"/>
                </g>
                <g transform="matrix(0.915675,0,0,0.915675,-3.779662,198.390137)">
                    <path d="M715.449,2370.612C711.549,2370.612 708.299,2371.912 706.249,2374.362L706.249,2370.912L700.299,2370.912L700.299,2397.612L706.549,2397.612L706.549,2384.112C706.549,2378.762 709.549,2376.062 713.999,2376.062C717.999,2376.062 720.349,2378.362 720.349,2383.112L720.349,2397.612L726.599,2397.612L726.599,2382.312C726.599,2374.262 721.849,2370.612 715.449,2370.612Z" style="fill:white;fill-rule:nonzero;"/>
                </g>
                <g transform="matrix(0.915675,0,0,0.915675,-3.779662,198.390137)">
                    <path d="M742.799,2397.962C750.299,2397.962 754.899,2394.712 754.899,2389.71C754.899,2379.26 738.399,2384.058 738.399,2378.661C738.399,2376.911 740.199,2375.662 743.999,2375.662C746.549,2375.662 749.099,2376.162 751.649,2377.661L754.049,2372.912C751.649,2371.462 747.599,2370.612 744.049,2370.612C736.849,2370.612 732.299,2373.912 732.299,2378.961C732.299,2389.61 748.799,2384.808 748.799,2389.911C748.799,2391.761 747.149,2392.862 743.199,2392.862C739.849,2392.862 736.249,2391.761 733.899,2390.211L731.499,2394.962C733.899,2396.662 738.349,2397.962 742.799,2397.962Z" style="fill:white;fill-rule:nonzero;"/>
                </g>
                <g transform="matrix(0.915675,0,0,0.915675,-3.779662,198.390137)">
                    <path d="M783.199,2360.412L775.849,2360.412L769.099,2367.262L774.499,2367.262L783.199,2360.412ZM780.149,2370.912L780.149,2374.162C777.999,2371.762 774.999,2370.612 771.599,2370.612C763.799,2370.612 758.099,2375.962 758.099,2384.262C758.099,2392.562 763.799,2397.962 771.599,2397.962C775.249,2397.962 778.349,2396.712 780.449,2394.162L780.449,2397.612L786.399,2397.612L786.399,2370.912L780.149,2370.912ZM772.299,2392.612C767.799,2392.612 764.399,2389.362 764.399,2384.262C764.399,2379.162 767.799,2375.912 772.299,2375.912C776.849,2375.912 780.249,2379.162 780.249,2384.262C780.249,2389.362 776.849,2392.612 772.299,2392.612Z" style="fill:white;fill-rule:nonzero;"/>
                </g>
                <g transform="matrix(0.915675,0,0,0.915675,-3.779662,198.390137)">
                    <path d="M813.599,2370.912L805.049,2390.712L796.749,2370.912L790.249,2370.912L801.699,2397.612L808.149,2397.612L819.599,2370.912L813.599,2370.912Z" style="fill:white;fill-rule:nonzero;"/>
                </g>
                <g transform="matrix(0.915675,0,0,0.915675,-3.779662,198.390137)">
                    <path d="M835.449,2392.662C831.549,2392.662 828.649,2391.012 827.349,2387.962L847.799,2383.962C847.749,2375.612 841.749,2370.612 834.299,2370.612C826.349,2370.612 820.549,2376.312 820.549,2384.262C820.549,2392.212 826.349,2397.962 835.299,2397.962C839.899,2397.962 843.649,2396.462 845.999,2393.612L842.699,2389.762C840.749,2391.712 838.449,2392.662 835.449,2392.662ZM834.299,2375.612C838.049,2375.612 840.849,2377.812 841.699,2381.062L826.599,2383.962L826.599,2383.912C826.599,2378.812 829.749,2375.612 834.299,2375.612Z" style="fill:white;fill-rule:nonzero;"/>
                </g>
                <g transform="matrix(0.915675,0,0,0.915675,-3.779662,198.390137)">
                    <path d="M856.949,2366.512C859.299,2366.512 860.949,2364.812 860.949,2362.612C860.949,2360.562 859.249,2359.012 856.949,2359.012C854.649,2359.012 852.949,2360.662 852.949,2362.762C852.949,2364.862 854.649,2366.512 856.949,2366.512ZM853.799,2397.612L860.049,2397.612L860.049,2370.912L853.799,2370.912L853.799,2397.612Z" style="fill:white;fill-rule:nonzero;"/>
                </g>
                <g transform="matrix(0.915675,0,0,0.915675,-3.779662,198.390137)">
                    <path d="M876.499,2397.962C883.999,2397.962 888.599,2394.712 888.599,2389.71C888.599,2379.26 872.099,2384.058 872.099,2378.661C872.099,2376.911 873.899,2375.662 877.699,2375.662C880.249,2375.662 882.799,2376.162 885.349,2377.661L887.749,2372.912C885.349,2371.462 881.299,2370.612 877.749,2370.612C870.549,2370.612 865.999,2373.912 865.999,2378.961C865.999,2389.61 882.499,2384.808 882.499,2389.911C882.499,2391.761 880.849,2392.862 876.899,2392.862C873.549,2392.862 869.949,2391.761 867.599,2390.211L865.199,2394.962C867.599,2396.662 872.049,2397.962 876.499,2397.962Z" style="fill:white;fill-rule:nonzero;"/>
                </g>
                <g transform="matrix(0.915675,0,0,0.915675,-3.779662,198.390137)">
                    <path d="M920.499,2392.662C916.599,2392.662 913.699,2391.012 912.399,2387.962L932.849,2383.962C932.799,2375.612 926.799,2370.612 919.349,2370.612C911.399,2370.612 905.599,2376.312 905.599,2384.262C905.599,2392.212 911.399,2397.962 920.349,2397.962C924.949,2397.962 928.699,2396.462 931.049,2393.612L927.749,2389.762C925.799,2391.712 923.499,2392.662 920.499,2392.662ZM919.349,2375.612C923.099,2375.612 925.899,2377.812 926.749,2381.062L911.649,2383.962L911.649,2383.912C911.649,2378.812 914.799,2375.612 919.349,2375.612Z" style="fill:white;fill-rule:nonzero;"/>
                </g>
                <g transform="matrix(0.915675,0,0,0.915675,-3.779662,198.390137)">
                    <path d="M965.349,2392.662C961.449,2392.662 958.549,2391.012 957.249,2387.962L977.699,2383.962C977.649,2375.612 971.649,2370.612 964.199,2370.612C956.249,2370.612 950.449,2376.312 950.449,2384.262C950.449,2392.212 956.249,2397.962 965.199,2397.962C969.799,2397.962 973.549,2396.462 975.899,2393.612L972.599,2389.762C970.649,2391.712 968.349,2392.662 965.349,2392.662ZM964.199,2375.612C967.949,2375.612 970.749,2377.812 971.599,2381.062L956.499,2383.962L956.499,2383.912C956.499,2378.812 959.649,2375.612 964.199,2375.612Z" style="fill:white;fill-rule:nonzero;"/>
                </g>
                <g transform="matrix(0.915675,0,0,0.915675,-3.779662,198.390137)">
                    <path d="M1002.199,2370.912L993.649,2390.712L985.349,2370.912L978.849,2370.912L990.299,2397.612L996.749,2397.612L1008.199,2370.912L1002.199,2370.912Z" style="fill:white;fill-rule:nonzero;"/>
                </g>
                <g transform="matrix(0.915675,0,0,0.915675,-3.779662,198.390137)">
                    <path d="M1024.049,2392.662C1020.149,2392.662 1017.249,2391.012 1015.949,2387.962L1036.399,2383.962C1036.349,2375.612 1030.349,2370.612 1022.899,2370.612C1014.949,2370.612 1009.149,2376.312 1009.149,2384.262C1009.149,2392.212 1014.949,2397.962 1023.899,2397.962C1028.499,2397.962 1032.249,2396.462 1034.599,2393.612L1031.299,2389.762C1029.349,2391.712 1027.049,2392.662 1024.049,2392.662ZM1022.899,2375.612C1026.649,2375.612 1029.449,2377.812 1030.299,2381.062L1015.199,2383.962L1015.199,2383.912C1015.199,2378.812 1018.349,2375.612 1022.899,2375.612Z" style="fill:white;fill-rule:nonzero;"/>
                </g>
                <g transform="matrix(0.915675,0,0,0.915675,-3.779662,198.390137)">
                    <path d="M1057.549,2370.612C1053.649,2370.612 1050.399,2371.912 1048.349,2374.362L1048.349,2370.912L1042.399,2370.912L1042.399,2397.612L1048.649,2397.612L1048.649,2384.112C1048.649,2378.762 1051.649,2376.062 1056.099,2376.062C1060.099,2376.062 1062.449,2378.362 1062.449,2383.112L1062.449,2397.612L1068.699,2397.612L1068.699,2382.312C1068.699,2374.262 1063.949,2370.612 1057.549,2370.612Z" style="fill:white;fill-rule:nonzero;"/>
                </g>
                <g transform="matrix(0.915675,0,0,0.915675,-3.779662,198.390137)">
                    <path d="M1089.899,2391.712C1088.949,2392.462 1087.699,2392.812 1086.399,2392.812C1084.049,2392.812 1082.699,2391.412 1082.699,2388.812L1082.699,2376.112L1089.849,2376.112L1089.849,2371.112L1082.699,2371.112L1082.699,2365.012L1076.449,2365.012L1076.449,2388.962C1076.449,2394.862 1079.799,2397.962 1085.649,2397.962C1087.899,2397.962 1090.149,2397.362 1091.649,2396.162L1089.899,2391.712Z" style="fill:white;fill-rule:nonzero;"/>
                </g>
                <g transform="matrix(0.915675,0,0,0.915675,-3.779662,198.390137)">
                    <path d="M1107.899,2397.962C1116.199,2397.962 1122.149,2392.262 1122.149,2384.262C1122.149,2376.262 1116.199,2370.612 1107.899,2370.612C1099.699,2370.612 1093.699,2376.262 1093.699,2384.262C1093.699,2392.262 1099.699,2397.962 1107.899,2397.962ZM1107.899,2392.612C1103.399,2392.612 1099.999,2389.362 1099.999,2384.262C1099.999,2379.162 1103.399,2375.912 1107.899,2375.912C1112.449,2375.912 1115.849,2379.162 1115.849,2384.262C1115.849,2389.362 1112.449,2392.612 1107.899,2392.612Z" style="fill:white;fill-rule:nonzero;"/>
                </g>
                <g transform="matrix(0.915675,0,0,0.915675,-3.779662,198.390137)">
                    <path d="M1136.399,2397.962C1143.899,2397.962 1148.499,2394.712 1148.499,2389.71C1148.499,2379.26 1131.999,2384.058 1131.999,2378.661C1131.999,2376.911 1133.799,2375.662 1137.599,2375.662C1140.149,2375.662 1142.699,2376.162 1145.249,2377.661L1147.649,2372.912C1145.249,2371.462 1141.199,2370.612 1137.649,2370.612C1130.449,2370.612 1125.899,2373.912 1125.899,2378.961C1125.899,2389.61 1142.399,2384.808 1142.399,2389.911C1142.399,2391.761 1140.749,2392.862 1136.799,2392.862C1133.449,2392.862 1129.849,2391.761 1127.499,2390.211L1125.099,2394.962C1127.499,2396.662 1131.949,2397.962 1136.399,2397.962Z" style="fill:white;fill-rule:nonzero;"/>
                </g>
            </g>
        </g>
    </g>
</svg>
